# xmcd CD database file
#
# Track frame offsets:
#	150
#	17418
#	34856
#	52876
#	71869
#	89594
#	107997
#	125679
#	145242
#	162624
#
# Disc length: 2429 seconds
#
# Revision: 0
# Processed by: cddbd v1.5.2PL0 Copyright (c) Steve Scherf et al.
# Submitted via: CDex 1.79
#
DISCID=90097b0a
DTITLE=The Naked And Famous - Simple Forms
DYEAR=2017
DGENRE=Salsa
TTITLE0=Higher
TTITLE1=Water Beneath You
TTITLE2=My Energy
TTITLE3=Last Forever
TTITLE4=Losing Our Control
TTITLE5=Backslide
TTITLE6=Laid Low
TTITLE7=Runners
TTITLE8=Falling
TTITLE9=Rotten
EXTD=YEAR: 2017
EXTT0=
EXTT1=
EXTT2=
EXTT3=
EXTT4=
EXTT5=
EXTT6=
EXTT7=
EXTT8=
EXTT9=
PLAYORDER=
